<svg width="160" height="47" viewBox="0 0 160 47" fill="none" xmlns="http://www.w3.org/2000/svg">
<path d="M1.71011 15.5888H12.8526C15.9521 15.5888 18.2501 16.0163 19.7999 17.1119C21.6436 18.4212 22.6857 20.345 22.6857 22.8568C22.6857 28.1474 18.7311 30.4988 14.6428 31.0065C14.0016 31.0867 13.3603 31.0867 12.9327 31.0867L10.1271 30.4187V35.7361C10.1271 39.1028 10.5012 39.3166 13.9748 39.6105V41H1.46963V39.6105C4.51577 39.3166 4.91658 39.1028 4.91658 35.7361V20.826C4.91658 17.4859 4.51577 17.2455 1.71011 16.9783V15.5888ZM10.1271 18.7418V28.8689C10.5813 29.0559 11.4898 29.243 12.3449 29.243C13.8679 29.243 17.021 28.2009 17.021 22.9369C17.021 18.5815 14.4825 17.1386 11.9975 17.1386C11.2226 17.1386 10.7149 17.3256 10.4744 17.5394C10.234 17.7532 10.1271 18.154 10.1271 18.7418ZM40.0541 15.0009H40.0808C47.4824 15.0009 53.6815 20.2916 53.6815 27.9871C53.6815 36.4575 47.2686 41.6146 39.5464 41.6146C31.4233 41.6146 25.6517 35.8162 25.6517 28.3078C25.6517 21.494 30.782 15.0009 40.0541 15.0009ZM39.3059 16.6843H39.2792C35.1642 16.6843 31.7173 20.6924 31.7173 27.613C31.7173 34.2932 35.0039 39.9045 40.3213 39.9045C44.2492 39.9045 47.616 36.2972 47.616 29.0826C47.616 21.2803 44.1156 16.6843 39.3059 16.6843ZM81.2838 40.0381L81.0433 41.3474C80.8563 41.3474 80.4288 41.3206 79.9745 41.3206C74.8976 41.0802 73.3478 39.9579 71.7446 37.4996C70.7025 35.8964 69.6604 33.8122 68.4847 31.728C67.8167 30.579 67.0685 30.098 65.7859 30.098H65.011V35.7361C65.011 38.9425 65.4118 39.2899 68.4312 39.6105V41H56.3803V39.6105C59.3463 39.2899 59.854 38.9425 59.854 35.7361V20.7993C59.854 17.673 59.4531 17.2187 56.5406 16.9783V15.5888H67.6296C71.2369 15.5888 73.2677 15.9629 74.8976 17.0584C76.4474 18.1272 77.5429 19.8641 77.5429 22.2689C77.5429 25.7426 75.2182 27.613 72.5729 28.6284C73.1608 29.7774 74.6304 32.3693 75.8328 34.1595C77.249 36.3239 78.1308 37.6065 78.9057 38.4348C79.734 39.3166 80.3486 39.7174 81.2838 40.0381ZM65.011 28.5482H65.9997C67.7365 28.5482 69.1527 28.281 70.0345 27.5061C71.3972 26.3304 71.9583 24.8074 71.9583 22.83C71.9583 18.6616 69.5001 17.1386 67.2288 17.1386C66.1867 17.1386 65.6523 17.3256 65.3584 17.5661C65.0912 17.8066 65.011 18.2341 65.011 19.009V28.5482ZM105.012 22.3224L103.569 22.4025C103.114 20.3718 102.473 19.009 101.778 18.2608C101.03 17.5661 100.068 17.3256 97.5032 17.3256H95.7396V35.7361C95.7396 39.1028 96.1671 39.3166 99.721 39.6105V41H86.6012V39.6105C89.9947 39.3166 90.4222 39.1028 90.4222 35.7361V17.3256H89.1396C85.5057 17.3256 84.8644 17.8066 84.3032 18.4212C83.6085 19.0892 83.1008 20.4519 82.5931 22.4292H81.1235C81.2838 19.5167 81.4976 16.6042 81.5777 14.6001H82.5664C83.181 15.5086 83.7154 15.5888 84.8644 15.5888H101.271C102.366 15.5888 102.901 15.3483 103.622 14.6001H104.557C104.584 16.2568 104.825 19.8374 105.012 22.3224Z" fill="#04033D"/>
<path d="M130.263 41H118.238V39.6105C121.231 39.3166 121.632 39.1028 121.632 35.7361V20.826C121.632 17.4859 121.231 17.2455 118.238 16.9783V15.5888H130.263V16.9783C127.27 17.2455 126.922 17.4859 126.922 20.826V35.7361C126.922 39.1028 127.27 39.3166 130.263 39.6105V41ZM156.956 22.3224L155.513 22.4025C155.059 20.3718 154.418 19.009 153.723 18.2608C152.975 17.5661 152.013 17.3256 149.448 17.3256H147.684V35.7361C147.684 39.1028 148.112 39.3166 151.666 39.6105V41H138.546V39.6105C141.939 39.3166 142.367 39.1028 142.367 35.7361V17.3256H141.084C137.45 17.3256 136.809 17.8066 136.248 18.4212C135.553 19.0892 135.045 20.4519 134.538 22.4292H133.068C133.228 19.5167 133.442 16.6042 133.522 14.6001H134.511C135.126 15.5086 135.66 15.5888 136.809 15.5888H153.215C154.311 15.5888 154.845 15.3483 155.567 14.6001H156.502C156.529 16.2568 156.769 19.8374 156.956 22.3224Z" fill="#5C080E"/>
<line x1="111.5" y1="47" x2="111.5" y2="6" stroke="#04033D" stroke-width="3"/>
</svg>
