<svg width="26" height="26" viewBox="0 0 26 26" fill="none" xmlns="http://www.w3.org/2000/svg">
<path fill-rule="evenodd" clip-rule="evenodd" d="M15.0078 2.47285C14.5381 0.393734 11.5757 0.393737 11.1061 2.47285L10.8303 3.69388C10.5259 5.04135 8.9796 5.68185 7.81157 4.94427L6.75314 4.2759C4.9509 3.13783 2.85615 5.23258 3.99422 7.03481L4.66259 8.09325C5.40018 9.26128 4.75968 10.8076 3.4122 11.112L2.19117 11.3878C0.112057 11.8574 0.112059 14.8198 2.19117 15.2895L3.4122 15.5653C4.75968 15.8697 5.40018 17.416 4.66259 18.584L3.99422 19.6424C2.85615 21.4447 4.9509 23.5394 6.75314 22.4013L7.81157 21.733C8.9796 20.9954 10.5259 21.6359 10.8303 22.9834L11.1061 24.2044C11.5757 26.2835 14.5381 26.2835 15.0078 24.2044L15.2836 22.9834C15.588 21.6359 17.1343 20.9954 18.3023 21.733L19.3607 22.4013C21.163 23.5394 23.2577 21.4447 22.1197 19.6424L21.4513 18.584C20.7137 17.416 21.3542 15.8697 22.7017 15.5653L23.9227 15.2895C26.0018 14.8198 26.0018 11.8574 23.9227 11.3878L22.7017 11.112C21.3542 10.8076 20.7137 9.26128 21.4513 8.09325L22.1197 7.03481C23.2577 5.23258 21.163 3.13783 19.3607 4.2759L18.3023 4.94427C17.1343 5.68185 15.588 5.04135 15.2836 3.69388L15.0078 2.47285ZM13.0569 16.7011C14.914 16.7011 16.4194 15.1957 16.4194 13.3386C16.4194 11.4816 14.914 9.97616 13.0569 9.97616C11.1999 9.97616 9.69447 11.4816 9.69447 13.3386C9.69447 15.1957 11.1999 16.7011 13.0569 16.7011Z" fill="white"/>
</svg>
